<?xml version="1.0" encoding="utf-8"?>
<!-- Generator: Adobe Illustrator 25.1.0, SVG Export Plug-In . SVG Version: 6.00 Build 0)  -->
<svg version="1.1" id="logo" xmlns="http://www.w3.org/2000/svg" xmlns:xlink="http://www.w3.org/1999/xlink" x="0px" y="0px"
	 viewBox="0 0 850.39 850.39" style="enable-background:new 0 0 850.39 850.39;" xml:space="preserve">
<style type="text/css">
	.st0{clip-path:url(#SVGID_2_);fill:#233061;}
	.st1{clip-path:url(#SVGID_2_);}
	.st2{fill:#F08000;}
	.st3{fill:#CE6E15;}
	.st4{fill:#B5548C;}
	.st5{fill:#0C9ACE;}
	.st6{fill:#CA3E4A;}
	.st7{fill:#EA4E5C;}
	.st8{fill:#D76CA7;}
	.st9{fill:#FFFFFE;}
</style>
<g>
	<defs>
		<path id="SVGID_1_" d="M71.95,202.71c-8.32,5.4-15.54,17.91-16.06,27.81v389.35c0.51,9.9,7.74,22.42,16.06,27.81l337.19,194.68
			c8.83,4.5,23.28,4.5,32.11,0l337.19-194.68c8.32-5.4,15.54-17.91,16.06-27.81V230.52c-0.51-9.9-7.74-22.42-16.06-27.81
			L441.25,8.03c-8.83-4.5-23.28-4.5-32.11,0L71.95,202.71z"/>
	</defs>
	<clipPath id="SVGID_2_">
		<use xlink:href="#SVGID_1_"  style="overflow:visible;"/>
	</clipPath>
	<rect x="38.32" y="-25.22" class="st0" width="776.04" height="900.83"/>
	<g class="st1">
		<g>
			<path class="st2" d="M656.28,672.04c0,0-16.81,9.76-44.89,18.62c-66.62,1.88-136.88-21.43-193.89-60.12
				c-0.16-0.12-0.36-0.23-0.52-0.35c-0.39-0.2-0.78-0.38-1.17-0.55c-33.98-17.78-70.66-15.09-113.98,2.26
				c25.9-23.25,54.14-44.68,91.86-47.81C439.33,580.27,656.28,672.04,656.28,672.04z"/>
			<path class="st3" d="M415.81,629.65c-48.47-22.36-117.27,52.5-174.38,97.79c-57.56,45.7-119.03,28.44-119.03,28.44l-19.61-30.44
				l4.98-5.73c0,0,11.89,9.85,47.07,9.01c43.29-1.04,76.16-31.68,130.82-82.04c5.31-4.89,10.68-9.87,16.16-14.77
				C345.15,614.56,381.83,611.86,415.81,629.65z"/>
		</g>
		<g>
			<path class="st4" d="M555.14,708.26c-24.66,11.7-46.43,19.86-65.6,19.86c-95.22,0-153.28-68.47-228.74-127.44
				C195.57,549.7,99.2,508.42,53.2,507.06c-20.31-0.6-28.65,0.87-28.65,0.87l-56.09,51.44l8.57,7.91c0,0,91.38-11.23,188.54,48.99
				c89.88,55.71,145.43,121.9,214.38,148.36C429.73,772.91,479.33,754.24,555.14,708.26z"/>
			<path class="st5" d="M834,626.41c0,0-9.73,0.16-31.81,0.16c-103.99,0-184.75,52.12-247.06,81.68
				c-75.81,45.98-125.41,64.65-175.2,56.37c19.47,7.47,40.02,11.78,62.7,11.78c143.85,0,207.93-112.1,362.47-117.94
				c19.81-0.75,29.75,4.58,29.75,4.58L834,626.41z"/>
		</g>
		<g>
			<path class="st6" d="M355.38,540.83c-36.83-4.95-58.96,17.35-133.27,92.64c-66.34,66.26-116.01,79.46-152.15,79.46
				c-36.17,0-76.19-9.35-101.7-24.21c-17.43-28.41-21.31-54.24-21.31-54.24l5.82-6.46c0,0,49.63,40.22,114.47,40.22
				c64.81,0,97.44-40.86,158.14-102.4c0.26-0.26,0.49-0.52,0.72-0.75c0.03-0.03,0.06-0.06,0.09-0.06c39.82-29.13,63.94-34,88.81-34
				C328.57,531.05,341.92,534.7,355.38,540.83z"/>
			<path class="st7" d="M725.9,638.1c-1.8,0.52-3.62,1.07-5.39,1.59c-3.62,1.1-7.18,2.26-10.69,3.48c-2.08,0.69-4.11,1.42-6.14,2.14
				c-1.45,0.52-2.9,1.04-4.34,1.59c-1.33,0.49-2.66,1.01-4,1.53c-4.03,1.53-7.99,3.16-11.9,4.81c-2.84,1.19-5.68,2.43-8.46,3.68
				c-2.69,1.19-5.36,2.4-7.96,3.65c-1.39,0.64-2.78,1.27-4.14,1.94c-3.45,1.62-6.86,3.3-10.22,5.01c-2.17,1.07-4.34,2.17-6.49,3.27
				c-0.14,0.09-0.32,0.14-0.46,0.23c-7.24,0.29-13.99,0.43-20.01,0.43c-126.52,0-200.25-98.78-270.35-130.63l0,0
				c-13.47-6.11-26.79-9.76-40.34-9.76c-24.88,0-49,4.86-88.81,34c43.26-43.76,79.98-73.06,122.17-75.2
				c0.38-0.03,0.75-0.06,1.13-0.06c1.48-0.06,2.95-0.09,4.43-0.09h0.41c0.38,0,0.78,0,1.16,0.03
				c65.65,1.07,114.01,93.3,220.43,129.94C629.03,637.96,687.65,639.66,725.9,638.1z"/>
		</g>
		<path class="st8" d="M834,626.41c0,0-9.73,0.16-31.81,0.16c-103.99,0-184.75,52.12-247.06,81.68
			c-75.81,45.98-125.41,64.65-175.2,56.37c19.47,7.47,40.02,11.78,62.7,11.78c143.85,0,207.93-112.1,362.47-117.94
			c19.81-0.75,29.75,4.58,29.75,4.58L834,626.41z"/>
	</g>
	<g class="st1">
		<path class="st9" d="M146.9,454.95c-14.74,0-25.06-5.94-30.96-17.83l15.95-9.11c2.95,5.9,7.95,8.85,15.01,8.85
			c4.91,0,8.58-1.16,10.99-3.49c2.41-2.32,3.62-5.5,3.62-9.52v-64.6h18.36v64.6c0,9.83-3.08,17.47-9.25,22.92
			C164.45,452.23,156.55,454.95,146.9,454.95z"/>
		<path class="st9" d="M288.29,359.26v93.82h-18.36v-60.85l-26.46,43.52l-2.16,0.08l-26.34-43.37v60.62h-18.5v-93.82h19.03
			l26.9,44.3l26.77-44.3H288.29z"/>
		<path class="st9" d="M343.91,384.19c9.02,0,16.73,3.42,23.12,10.25c6.39,6.84,9.58,15.21,9.58,25.13s-3.2,18.29-9.58,25.13
			c-6.39,6.84-14.1,10.25-23.12,10.25c-9.38,0-16.62-3.26-21.71-9.78v7.91h-17.29v-93.82h17.29v34.71
			C327.29,387.45,334.53,384.19,343.91,384.19z M327.43,433.18c3.48,3.53,7.91,5.29,13.27,5.29c5.36,0,9.8-1.76,13.34-5.29
			c3.53-3.53,5.29-8.06,5.29-13.6c0-5.54-1.77-10.07-5.29-13.6c-3.53-3.53-7.97-5.29-13.34-5.29c-5.36,0-9.78,1.77-13.27,5.29
			c-3.48,3.53-5.23,8.06-5.23,13.6C322.2,425.11,323.94,429.65,327.43,433.18z"/>
		<path class="st9" d="M439.74,386.07h17.29v67.01h-17.29v-7.91c-5.18,6.52-12.46,9.78-21.85,9.78c-8.94,0-16.6-3.42-22.99-10.25
			c-6.39-6.83-9.58-15.21-9.58-25.13s3.19-18.29,9.58-25.13c6.39-6.84,14.05-10.25,22.99-10.25c9.38,0,16.66,3.26,21.85,9.78V386.07
			z M407.84,433.18c3.48,3.53,7.91,5.29,13.27,5.29s9.8-1.76,13.34-5.29c3.53-3.53,5.29-8.06,5.29-13.6c0-5.54-1.77-10.07-5.29-13.6
			c-3.53-3.53-7.97-5.29-13.34-5.29s-9.78,1.77-13.27,5.29c-3.48,3.53-5.23,8.06-5.23,13.6
			C402.61,425.11,404.36,429.65,407.84,433.18z"/>
		<path class="st9" d="M516.4,386.07h18.5l-24.43,67.12c-3.48,9.57-8.1,16.52-13.86,20.86c-5.76,4.34-12.92,6.28-21.48,5.84V463.8
			c4.64,0.09,8.33-0.89,11.06-2.95c2.72-2.06,4.89-5.36,6.5-9.92l-27.48-64.87h18.9l17.48,45.04L516.4,386.07z"/>
		<path class="st9" d="M555,426.68c2.32,8.4,8.62,12.6,18.9,12.6c6.61,0,11.61-2.23,15.01-6.7l13.94,8.04
			c-6.61,9.56-16.35,14.34-29.22,14.34c-11.08,0-19.97-3.35-26.67-10.05c-6.7-6.7-10.05-15.14-10.05-25.33
			c0-10.1,3.3-18.52,9.92-25.26c6.61-6.75,15.1-10.12,25.46-10.12c9.83,0,17.94,3.4,24.33,10.19c6.39,6.79,9.58,15.19,9.58,25.2
			c0,2.23-0.22,4.6-0.67,7.1H555z M554.73,413.27h34.18c-0.98-4.56-3.02-7.95-6.1-10.19c-3.08-2.23-6.59-3.35-10.52-3.35
			c-4.65,0-8.49,1.19-11.53,3.55C557.73,405.66,555.72,408.98,554.73,413.27z"/>
		<path class="st9" d="M631.53,405.1c0,1.79,1.18,3.24,3.55,4.36c2.37,1.12,5.25,2.1,8.65,2.95c3.39,0.85,6.79,1.92,10.19,3.22
			c3.39,1.3,6.28,3.46,8.64,6.5c2.37,3.04,3.55,6.83,3.55,11.39c0,6.88-2.57,12.18-7.71,15.88c-5.14,3.71-11.55,5.56-19.23,5.56
			c-13.76,0-23.14-5.31-28.15-15.95l15.01-8.44c1.96,5.81,6.34,8.71,13.13,8.71c6.17,0,9.25-1.92,9.25-5.76
			c0-1.79-1.19-3.24-3.55-4.36c-2.37-1.12-5.25-2.12-8.64-3.02c-3.4-0.89-6.79-2.01-10.19-3.35c-3.4-1.34-6.28-3.46-8.64-6.37
			c-2.37-2.9-3.55-6.54-3.55-10.92c0-6.61,2.43-11.82,7.3-15.61c4.87-3.8,10.92-5.7,18.16-5.7c5.45,0,10.41,1.23,14.88,3.69
			c4.47,2.46,8,5.96,10.59,10.52l-14.74,8.04c-2.14-4.56-5.72-6.84-10.72-6.84c-2.24,0-4.09,0.49-5.56,1.47
			C632.27,402.06,631.53,403.4,631.53,405.1z"/>
		<path class="st9" d="M673.62,453.08v-13.8l32.03-32.97c7.15-7.51,10.72-13.76,10.72-18.76c0-3.66-1.14-6.61-3.42-8.85
			c-2.28-2.23-5.21-3.35-8.78-3.35c-7.06,0-12.29,3.67-15.68,10.99l-15.55-9.11c2.95-6.43,7.19-11.35,12.73-14.74
			c5.54-3.39,11.61-5.09,18.23-5.09c8.49,0,15.77,2.66,21.85,7.97c6.08,5.32,9.11,12.49,9.11,21.51
			c-0.02,9.73-5.15,19.71-15.39,29.97l-18.4,18.42h35.27v17.83H673.62z"/>
	</g>
</g>
</svg>
